#!OML:ASF E:\motion texture\Top Level 1\Subject 1\Session 1\male.ASF
:FULLY-SPECIFIED
:DEGREES
652
root -19.5633 18.2939 6.03236 146.728 -80.0539 -138.708
lowerback 1.48462 -0.688496 4.44384
upperback -1.75159 -0.853985 5.96555
thorax -2.61312 -0.534159 3.7118
lowerneck -4.8927 -12.7274 -14.5241
upperneck 10.7012 -17.4974 11.284
head 6.31642 -8.56931 4.32765
rclavicle -1.94809e-014 -6.36111e-015
rhumerus -18.5937 15.5875 -88.5853
rradius 31.4776
rwrist 7.13805
rhand -13.6447 -22.4446
rfingers 7.12502
rthumb 12.4717 -52.0525
lclavicle -1.94809e-014 -6.36111e-015
lhumerus -28.4185 -6.90818 85.3207
lradius 59.4864
lwrist -21.2785
lhand -14.0627 13.3719
lfingers 7.12502
lthumb 12.0687 43.0039
rfemur -9.82189 1.58393 30.8917
rtibia 13.3979
rfoot -6.89994 1.57723
rtoes 18.7133
lfemur -21.94 4.73439 -7.57607
ltibia 47.9683
lfoot -4.7801 3.87509
ltoes -15.9115
653
root -19.6837 18.2906 6.01937 147.636 -79.7245 -139.602
lowerback 1.44833 -0.664709 4.53603
upperback -1.77494 -0.822516 5.9415
thorax -2.61946 -0.520955 3.63352
lowerneck -4.6034 -12.8871 -14.6965
upperneck 10.4792 -17.7336 11.3824
head 6.25384 -8.69602 4.3727
rclavicle -4.47266e-015 8.34896e-014
rhumerus -18.2122 17.0875 -89.0527
rradius 32.5705
rwrist 7.10955
rhand -13.5525 -22.1432
rfingers 7.12502
rthumb 12.5606 -51.7456
lclavicle -4.47266e-015 8.34896e-014
lhumerus -28.6687 -7.07874 85.6723
lradius 60.0853
lwrist -21.3793
lhand -13.9292 13.158
lfingers 7.12502
lthumb 12.1974 42.7824
rfemur -9.38635 1.68165 31.0282
rtibia 13.4052
rfoot -7.13953 1.67893
rtoes 18.6691
lfemur -22.4343 4.7168 -7.47338
ltibia 47.1044
lfoot -5.28846 4.03771
ltoes -15.9348
654
root -19.8047 18.2867 6.00673 148.457 -79.4018 -140.401
lowerback 1.40773 -0.64155 4.62866
upperback -1.80033 -0.792092 5.9149
thorax -2.62537 -0.50829 3.55238
lowerneck -4.31678 -13.0486 -14.8659
upperneck 10.253 -17.9729 11.4841
head 6.19164 -8.82391 4.41796
rclavicle 1.10325e-014 4.77083e-014
rhumerus -17.8441 18.4739 -89.4559
rradius 33.6663
rwrist 7.10264
rhand -13.4787 -21.8381
rfingers 7.12502
rthumb 12.6317 -51.4362
lclavicle 1.10325e-014 4.77083e-014
lhumerus -28.93 -7.19592 86.0119
lradius 60.6275
lwrist -21.4632
lhand -13.7981 12.9586
lfingers 7.12502
lthumb 12.3237 42.5754
rfemur -8.95952 1.77405 31.1604
rtibia 13.416
rfoot -7.37804 1.76587
rtoes 18.6266
lfemur -22.9062 4.67914 -7.36529
ltibia 46.1527
lfoot -5.75114 4.20703
ltoes -15.9445
655
root -19.9261 18.2821 5.9944 149.195 -79.0862 -141.111
lowerback 1.36288 -0.619144 4.72191
upperback -1.82814 -0.762885 5.88647
thorax -2.63128 -0.496271 3.46905
lowerneck -4.03271 -13.2112 -15.0329
upperneck 10.0236 -18.2142 11.5886
head 6.12996 -8.95252 4.46348
rclavicle 6.06293e-015 -3.26007e-014
rhumerus -17.4891 19.7488 -89.7994
rradius 34.7595
rwrist 7.11205
rhand -13.4178 -21.5451
rfingers 7.12502
rthumb 12.6904 -51.1395
lclavicle 6.06293e-015 -3.26007e-014
lhumerus -29.202 -7.26024 86.3391
lradius 61.1111
lwrist -21.533
lhand -13.6705 12.7741
lfingers 7.12502
lthumb 12.4468 42.3834
rfemur -8.54223 1.86114 31.2892
rtibia 13.4319
rfoot -7.61417 1.84006
rtoes 18.5715
lfemur -23.3563 4.62284 -7.25058
ltibia 45.1191
lfoot -6.16639 4.38533
ltoes -15.9507
656
root -20.048 18.2769 5.98239 149.86 -78.7794 -141.74
lowerback 1.31479 -0.598664 4.81473
upperback -1.85781 -0.736422 5.85607
thorax -2.63712 -0.485633 3.38403
lowerneck -3.75567 -13.3739 -15.1946
upperneck 9.79477 -18.4557 11.6938
head 6.07 -9.08083 4.50808
rclavicle 3.81667e-014 -3.73715e-014
rhumerus -17.1451 20.9164 -90.0888
rradius 35.843
rwrist 7.13311
rhand -13.3707 -21.2602
rfingers 7.12502
rthumb 12.7358 -50.8518
lclavicle 3.81667e-014 -3.73715e-014
lhumerus -29.4829 -7.2705 86.6509
lradius 61.5326
lwrist -21.5933
lhand -13.549 12.6012
lfingers 7.12502
lthumb 12.564 42.2034
rfemur -8.13327 1.94133 31.4139
rtibia 13.4529
rfoot -7.85006 1.90168
rtoes 18.504
lfemur -23.7836 4.54777 -7.12995
ltibia 44.0069
lfoot -6.53535 4.57428
ltoes -15.9562
657
root -20.1706 18.271 5.97067 150.454 -78.4805 -142.291
lowerback 1.26172 -0.578118 4.91012
upperback -1.88885 -0.710198 5.82338
thorax -2.64153 -0.475181 3.2952
lowerneck -3.48215 -13.5373 -15.3528
upperneck 9.56358 -18.6984 11.8012
head 6.01072 -9.20946 4.55258
rclavicle -2.05742e-014 3.18055e-015
rhumerus -16.8126 21.9724 -90.3267
rradius 36.9126
rwrist 7.1628
rhand -13.3384 -20.9851
rfingers 7.12502
rthumb 12.767 -50.5748
lclavicle -2.05742e-014 3.18055e-015
lhumerus -29.7697 -7.23059 86.9475
lradius 61.8893
lwrist -21.6453
lhand -13.4345 12.4382
lfingers 7.12502
lthumb 12.6743 42.0336
rfemur -7.73343 2.01526 31.536
rtibia 13.4804
rfoot -8.08612 1.95303
rtoes 18.4271
lfemur -24.1881 4.4562 -7.00127
ltibia 42.8219
lfoot -6.8562 4.77464
ltoes -15.9617
